<?xml version="1.0" encoding="UTF-8" standalone="no"?>
<!-- Created with Inkscape (http://www.inkscape.org/) -->

<svg
   xmlns:dc="http://purl.org/dc/elements/1.1/"
   xmlns:cc="http://creativecommons.org/ns#"
   xmlns:rdf="http://www.w3.org/1999/02/22-rdf-syntax-ns#"
   xmlns:svg="http://www.w3.org/2000/svg"
   xmlns="http://www.w3.org/2000/svg"
   xmlns:sodipodi="http://sodipodi.sourceforge.net/DTD/sodipodi-0.dtd"
   xmlns:inkscape="http://www.inkscape.org/namespaces/inkscape"
   width="512"
   height="1024"
   viewBox="0 0 135.46667 270.93334"
   version="1.1"
   id="svg8"
   inkscape:version="0.92.1 r15371"
   sodipodi:docname="bird_body.svg"
   inkscape:export-filename="C:\Prog\Projects\burds\bird_body.png"
   inkscape:export-xdpi="30"
   inkscape:export-ydpi="30">
  <defs
     id="defs2" />
  <sodipodi:namedview
     id="base"
     pagecolor="#ffffff"
     bordercolor="#666666"
     borderopacity="1.0"
     inkscape:pageopacity="0.0"
     inkscape:pageshadow="2"
     inkscape:zoom="0.7"
     inkscape:cx="216.8469"
     inkscape:cy="544.32717"
     inkscape:document-units="mm"
     inkscape:current-layer="layer1"
     showgrid="false"
     inkscape:window-width="1920"
     inkscape:window-height="1017"
     inkscape:window-x="-8"
     inkscape:window-y="-8"
     inkscape:window-maximized="1"
     units="px" />
  <metadata
     id="metadata5">
    <rdf:RDF>
      <cc:Work
         rdf:about="">
        <dc:format>image/svg+xml</dc:format>
        <dc:type
           rdf:resource="http://purl.org/dc/dcmitype/StillImage" />
        <dc:title></dc:title>
      </cc:Work>
    </rdf:RDF>
  </metadata>
  <g
     inkscape:label="Calque 1"
     inkscape:groupmode="layer"
     id="layer1"
     transform="translate(0,-26.06665)">
    <path
       style="fill:#808080;fill-opacity:1;stroke:none;stroke-width:0.47056183;stroke-linecap:round;stroke-linejoin:round;stroke-miterlimit:4;stroke-dasharray:none;stroke-opacity:1"
       d="m 65.791635,27.995023 c 0,0 -5.78493,12.562685 -8.810222,18.22355 -8.994553,4.042333 -15.340354,13.831473 -15.340331,25.267528 0.0093,3.066127 0.484567,6.108526 1.405838,8.999021 0.165632,2.050931 0.331996,5.372722 0.47963,6.849065 0.249866,2.498655 -2.131685,6.086863 -4.626574,10.484307 -9.964482,12.234866 -15.907521,32.088616 -17.400969,56.728806 0.0221,22.96524 8.997399,39.19903 19.636785,57.96098 -1.981499,16.40208 -17.695714,48.73426 -18.641006,50.62485 -1.238119,2.47624 -9.249552,16.62977 -5.221181,21.70483 4.312154,5.43258 9.554646,-5.83897 9.554646,-5.83897 0,0 -3.486824,8.25375 0.878337,10.36143 6.284477,3.03441 10.499109,-7.11898 10.499109,-7.11898 0,0 -2.635778,9.71563 1.852405,11.10851 7.333499,2.70611 8.490277,-8.79523 8.490277,-8.79523 0,0 -1.136522,10.6148 5.20884,11.23385 6.345355,0.61907 7.892711,-10.36932 7.892711,-10.36932 0,0 1.468157,11.0852 7.047435,10.83365 7.307235,-0.32943 7.533063,-8.49537 7.408136,-11.19535 0.237426,2.52331 1.382972,9.61947 6.747425,8.34223 6.500117,-1.54764 4.024062,-10.86475 4.024062,-10.86475 0,0 3.142391,10.80388 8.960544,8.39159 5.455928,-2.26209 -0.211195,-11.74012 -0.211195,-11.74012 0,0 4.957023,8.76513 9.667643,5.61397 3.8769,-2.59346 -1.96344,-12.01203 -1.96344,-12.01203 0,0 5.42482,9.48578 9.39181,6.28556 5.46732,-4.4106 -3.24986,-15.01219 -3.24986,-15.01219 0,0 -10.678559,-21.35766 -12.690507,-27.54826 -1.17634,-3.61953 -4.074589,-16.12107 -4.585117,-23.77682 10.759514,-23.59264 19.054344,-38.40568 19.076724,-61.50688 -1.12163,-18.92601 -6.70372,-37.25556 -15.884603,-49.93353 -1.388638,-5.078985 -4.540682,-8.025097 -6.316636,-16.372135 0.136491,-6.588661 1.63444,-11.01356 1.65403,-13.438084 3.4e-5,-11.473515 -6.387267,-21.289749 -15.428653,-25.307498 z"
       id="path827"
       inkscape:connector-curvature="0"
       sodipodi:nodetypes="ccccccccsscscccccccccccscscsccccccc" />
  </g>
</svg>
