<?xml version="1.0" encoding="UTF-8" standalone="no"?>
<!-- Created with Inkscape (http://www.inkscape.org/) -->

<svg
   xmlns:dc="http://purl.org/dc/elements/1.1/"
   xmlns:cc="http://creativecommons.org/ns#"
   xmlns:rdf="http://www.w3.org/1999/02/22-rdf-syntax-ns#"
   xmlns:svg="http://www.w3.org/2000/svg"
   xmlns="http://www.w3.org/2000/svg"
   xmlns:sodipodi="http://sodipodi.sourceforge.net/DTD/sodipodi-0.dtd"
   xmlns:inkscape="http://www.inkscape.org/namespaces/inkscape"
   width="1024"
   height="512"
   viewBox="0 0 270.93333 135.46666"
   version="1.1"
   id="svg4490"
   inkscape:version="0.92.2 (5c3e80d, 2017-08-06)"
   sodipodi:docname="could1.svg"
   inkscape:export-filename="C:\Prog\Projets\burds\cloud1.png"
   inkscape:export-xdpi="30.000002"
   inkscape:export-ydpi="30.000002">
  <defs
     id="defs4484" />
  <sodipodi:namedview
     id="base"
     pagecolor="#c6edff"
     bordercolor="#666666"
     borderopacity="1.0"
     inkscape:pageopacity="0"
     inkscape:pageshadow="2"
     inkscape:zoom="0.7"
     inkscape:cx="-9.3033271"
     inkscape:cy="358.7003"
     inkscape:document-units="mm"
     inkscape:current-layer="layer1"
     showgrid="false"
     units="px"
     inkscape:window-width="1920"
     inkscape:window-height="1017"
     inkscape:window-x="-8"
     inkscape:window-y="-8"
     inkscape:window-maximized="1" />
  <metadata
     id="metadata4487">
    <rdf:RDF>
      <cc:Work
         rdf:about="">
        <dc:format>image/svg+xml</dc:format>
        <dc:type
           rdf:resource="http://purl.org/dc/dcmitype/StillImage" />
        <dc:title />
      </cc:Work>
    </rdf:RDF>
  </metadata>
  <g
     inkscape:label="Calque 1"
     inkscape:groupmode="layer"
     id="layer1"
     transform="translate(0,-161.53326)">
    <path
       style="fill:#ffffff;fill-opacity:1;stroke:none;stroke-width:0;stroke-linecap:round;stroke-linejoin:round;stroke-miterlimit:4;stroke-dasharray:none;stroke-opacity:1"
       d="m 184.78305,283.61239 c 35.30205,-0.69477 59.86004,-16.09003 59.86102,-34.6457 -0.0305,-17.76608 -22.62604,-32.75735 -52.78076,-35.01802 0.40006,-2.16487 0.60755,-4.35972 0.62011,-6.55981 -1.6e-4,-20.97922 -17.34561,-37.98619 -38.74233,-37.98631 -16.86788,0.006 -31.79302,10.71296 -36.90524,26.47384 -5.91305,-2.97575 -12.42759,-4.53329 -19.035531,-4.55115 -20.055243,0.0173 -37.422397,14.04951 -41.819671,33.78916 -3.577134,-1.34322 -7.412061,-2.03614 -11.285614,-2.03916 -16.282493,-1.4e-4 -29.482213,11.93009 -29.482439,26.64695 0.01555,10.20122 6.473229,19.49917 16.631026,23.94582 m 0,0 c 64.309352,14.85523 117.637389,10.63915 152.939429,9.94438"
       id="path5052"
       inkscape:connector-curvature="0"
       sodipodi:nodetypes="ccccccccccccc" />
  </g>
</svg>
