<?xml version="1.0" encoding="UTF-8" standalone="no"?>
<!-- Created with Inkscape (http://www.inkscape.org/) -->

<svg
   xmlns:dc="http://purl.org/dc/elements/1.1/"
   xmlns:cc="http://creativecommons.org/ns#"
   xmlns:rdf="http://www.w3.org/1999/02/22-rdf-syntax-ns#"
   xmlns:svg="http://www.w3.org/2000/svg"
   xmlns="http://www.w3.org/2000/svg"
   xmlns:sodipodi="http://sodipodi.sourceforge.net/DTD/sodipodi-0.dtd"
   xmlns:inkscape="http://www.inkscape.org/namespaces/inkscape"
   width="256"
   height="256"
   viewBox="0 0 67.733332 67.733335"
   version="1.1"
   id="svg8"
   inkscape:version="0.92.1 r15371"
   sodipodi:docname="frog_dead.svg"
   inkscape:export-filename="C:\Prog\Projects\burds\frog_dead.png"
   inkscape:export-xdpi="96"
   inkscape:export-ydpi="96">
  <defs
     id="defs2" />
  <sodipodi:namedview
     id="base"
     pagecolor="#ffffff"
     bordercolor="#666666"
     borderopacity="1.0"
     inkscape:pageopacity="0.0"
     inkscape:pageshadow="2"
     inkscape:zoom="3.3203125"
     inkscape:cx="123.97836"
     inkscape:cy="137.53237"
     inkscape:document-units="mm"
     inkscape:current-layer="layer1"
     showgrid="false"
     units="px"
     inkscape:window-width="1920"
     inkscape:window-height="1017"
     inkscape:window-x="-8"
     inkscape:window-y="-8"
     inkscape:window-maximized="1" />
  <metadata
     id="metadata5">
    <rdf:RDF>
      <cc:Work
         rdf:about="">
        <dc:format>image/svg+xml</dc:format>
        <dc:type
           rdf:resource="http://purl.org/dc/dcmitype/StillImage" />
        <dc:title />
      </cc:Work>
    </rdf:RDF>
  </metadata>
  <g
     inkscape:label="Calque 1"
     inkscape:groupmode="layer"
     id="layer1"
     transform="translate(0,-229.26665)">
    <path
       style="fill:#000000;fill-opacity:1;stroke:none;stroke-width:0.25104693px;stroke-linecap:butt;stroke-linejoin:miter;stroke-opacity:1"
       d="m 24.743613,250.74847 -4.120714,2.87316 c 0,0 -0.07561,-2.04145 0.453657,-2.45731 0.529266,-0.41585 1.398774,-1.77681 2.268282,-1.96584 0.869509,-0.18902 0.982923,-0.15122 0.982923,-0.15122 0,0 1.928041,1.39878 2.381697,0.52927 0.453657,-0.86951 1.323166,-1.24756 0.453657,-1.92804 -0.869509,-0.68048 -1.285361,-1.13414 -1.663408,-0.90731 -0.378047,0.22683 -0.453657,1.17195 -1.776822,0.90731 -1.323164,-0.26464 -1.92804,-0.52927 -2.079259,-0.98293 -0.151219,-0.45365 0,-3.06217 0.604876,-4.12071 0.604875,-1.05853 1.096336,-1.51219 1.096336,-1.51219 0,0 2.041455,-1.5878 0.378047,-2.23047 -1.663407,-0.64268 -2.041454,1.02072 -2.041454,1.02072 0,0 0.07561,0.0756 0.0378,0.71829 -0.0378,0.64269 -0.831704,4.49877 -2.306088,4.27194 -1.474384,-0.22683 -3.893885,-7.48534 -3.893885,-7.48534 0,0 0.64268,-3.09998 -1.171947,-2.53291 -1.814626,0.56706 -0.945118,2.15487 -0.945118,2.15487 0,0 0.756095,0.56706 0.945118,0.94511 0.189024,0.37805 2.192673,5.67071 1.398774,6.42681 -0.793898,0.75609 -5.028027,-1.36098 -5.028027,-1.36098 0,0 -1.8524306,-1.96584 -2.9109625,-0.0378 -1.0585321,1.92804 2.5329155,1.39877 2.5329155,1.39877 0,0 3.251206,0.60488 3.893886,1.6256 0.64268,1.02073 2.192674,2.68413 2.343892,4.8012 0.151219,2.11707 0.226828,6.65363 1.096337,7.25851 0.869509,0.60487 1.663408,1.28536 4.460957,-0.7939 2.797549,-2.07926 4.763394,-3.96949 4.763394,-3.96949 z"
       id="path4538"
       inkscape:connector-curvature="0" />
    <path
       inkscape:connector-curvature="0"
       id="path4540"
       d="m 43.217057,250.74847 4.120713,2.87316 c 0,0 0.07561,-2.04145 -0.453657,-2.45731 -0.529266,-0.41585 -1.398775,-1.77681 -2.268283,-1.96584 -0.869507,-0.18902 -0.982922,-0.15122 -0.982922,-0.15122 0,0 -1.92804,1.39878 -2.381696,0.52927 -0.453657,-0.86951 -1.323167,-1.24756 -0.453657,-1.92804 0.869508,-0.68048 1.28536,-1.13414 1.663407,-0.90731 0.378047,0.22683 0.453657,1.17195 1.776822,0.90731 1.323164,-0.26464 1.92804,-0.52927 2.079258,-0.98293 0.151219,-0.45365 0,-3.06217 -0.604875,-4.12071 -0.604875,-1.05853 -1.096337,-1.51219 -1.096337,-1.51219 0,0 -2.041453,-1.5878 -0.378046,-2.23047 1.663407,-0.64268 2.041453,1.02072 2.041453,1.02072 0,0 -0.07561,0.0756 -0.0378,0.71829 0.0378,0.64269 0.831703,4.49877 2.306087,4.27194 1.474385,-0.22683 3.893886,-7.48534 3.893886,-7.48534 0,0 -0.64268,-3.09998 1.171946,-2.53291 1.814626,0.56706 0.945118,2.15487 0.945118,2.15487 0,0 -0.756095,0.56706 -0.945118,0.94511 -0.189023,0.37805 -2.192673,5.67071 -1.398774,6.42681 0.793898,0.75609 5.028027,-1.36098 5.028027,-1.36098 0,0 1.852431,-1.96584 2.910963,-0.0378 1.058532,1.92804 -2.532916,1.39877 -2.532916,1.39877 0,0 -3.251206,0.60488 -3.893886,1.6256 -0.64268,1.02073 -2.192673,2.68413 -2.343892,4.8012 -0.151219,2.11707 -0.226828,6.65363 -1.096336,7.25851 -0.86951,0.60487 -1.663409,1.28536 -4.460958,-0.7939 -2.797547,-2.07926 -4.763392,-3.96949 -4.763392,-3.96949 z"
       style="fill:#000000;fill-opacity:1;stroke:none;stroke-width:0.25104693px;stroke-linecap:butt;stroke-linejoin:miter;stroke-opacity:1" />
    <path
       inkscape:connector-curvature="0"
       id="path4516"
       d="m 10.463968,277.88562 c 0,0 10.158148,11.06703 13.098666,11.97592 2.940515,0.90889 3.902866,1.9247 5.079073,1.01581 1.176208,-0.90888 1.176208,-2.61973 0.748497,-3.20783 -0.427714,-0.58811 -6.041427,-8.55424 -7.698808,-9.99776 -1.657383,-1.44353 -6.843385,-3.58209 -7.378024,-4.0098 -0.534639,-0.4277 -2.352413,-2.94051 -2.405879,-3.689 -0.05347,-0.74851 -0.53464,-1.55046 -0.481174,-1.92471 0.05347,-0.37425 1.710845,-3.20784 -0.481177,-2.88706 -2.1920212,0.32079 -0.748494,2.78013 -0.748494,2.78013 0,0 0.695031,2.40589 0.748494,3.2613 0.05347,0.85543 0.26732,1.22968 -0.213854,1.3366 -0.481177,0.10693 -5.8810353,-2.61973 -6.469138,-3.42169 -0.5881026,-0.80196 -1.2296704,-1.87123 -1.2296704,-1.87123 0,0 -0.2138569,-2.78013 -1.8712392,-1.87125 -1.65738141,0.9089 0.6950311,2.61974 0.6950311,2.61974 0,0 3.2613004,3.36822 3.635549,3.68901 0.3742486,0.32078 2.5662693,1.9247 2.0850932,2.6732 -0.4811742,0.74849 -2.726661,1.60392 -3.5286177,1.60392 -0.8019595,0 -2.7266639,-1.65739 -3.26130141,0.21385 -0.5346393,1.87124 1.60391721,1.55045 1.60391721,1.55045 0,0 0.6415678,-0.69503 1.2831356,-0.69503 0.6415659,0 3.9028663,-0.42771 4.758291,-0.10692 0.8554218,0.32078 2.0316296,0.96235 2.0316296,0.96235 z"
       style="fill:#000000;fill-opacity:1;stroke:none;stroke-width:0.25104693px;stroke-linecap:butt;stroke-linejoin:miter;stroke-opacity:1" />
    <path
       style="fill:#000000;fill-opacity:1;stroke:none;stroke-width:0.25104693px;stroke-linecap:butt;stroke-linejoin:miter;stroke-opacity:1"
       d="m 57.556353,277.88562 c 0,0 -10.158147,11.06703 -13.098665,11.97592 -2.940515,0.90889 -3.902866,1.9247 -5.079073,1.01581 -1.176209,-0.90888 -1.176209,-2.61973 -0.748497,-3.20783 0.427714,-0.58811 6.041427,-8.55424 7.698808,-9.99776 1.657383,-1.44353 6.843384,-3.58209 7.378024,-4.0098 0.534639,-0.4277 2.352412,-2.94051 2.405878,-3.689 0.05347,-0.74851 0.53464,-1.55046 0.481175,-1.92471 -0.05347,-0.37425 -1.710845,-3.20784 0.481176,-2.88706 2.192021,0.32079 0.748494,2.78013 0.748494,2.78013 0,0 -0.695031,2.40589 -0.748494,3.2613 -0.05347,0.85543 -0.26732,1.22968 0.213854,1.3366 0.481177,0.10693 5.881036,-2.61973 6.469138,-3.42169 0.588103,-0.80196 1.229671,-1.87123 1.229671,-1.87123 0,0 0.213856,-2.78013 1.871239,-1.87125 1.657381,0.9089 -0.695031,2.61974 -0.695031,2.61974 0,0 -3.261301,3.36822 -3.635549,3.68901 -0.374249,0.32078 -2.56627,1.9247 -2.085094,2.6732 0.481175,0.74849 2.726662,1.60392 3.528618,1.60392 0.80196,0 2.726664,-1.65739 3.261302,0.21385 0.534639,1.87124 -1.603918,1.55045 -1.603918,1.55045 0,0 -0.641567,-0.69503 -1.283135,-0.69503 -0.641566,0 -3.902867,-0.42771 -4.758291,-0.10692 -0.855422,0.32078 -2.03163,0.96235 -2.03163,0.96235 z"
       id="path4514"
       inkscape:connector-curvature="0" />
    <ellipse
       style="fill:#0f0f0f;fill-opacity:1;stroke:none;stroke-width:0;stroke-linecap:round;stroke-linejoin:round;stroke-miterlimit:4;stroke-dasharray:none;stroke-opacity:1"
       id="path4496"
       cx="34.043571"
       cy="243.45216"
       rx="7.7121611"
       ry="8.6950855" />
    <ellipse
       style="fill:#0f0f0f;fill-opacity:1;stroke:none;stroke-width:0;stroke-linecap:round;stroke-linejoin:round;stroke-miterlimit:4;stroke-dasharray:none;stroke-opacity:1"
       id="path4498"
       cx="34.194794"
       cy="252.14725"
       rx="9.980444"
       ry="12.173118" />
    <ellipse
       style="fill:#0f0f0f;fill-opacity:1;stroke:none;stroke-width:0;stroke-linecap:round;stroke-linejoin:round;stroke-miterlimit:4;stroke-dasharray:none;stroke-opacity:1"
       id="path4500"
       cx="34.232597"
       cy="264.01794"
       rx="15.008472"
       ry="16.331636" />
    <ellipse
       style="fill:#0f0f0f;fill-opacity:1;stroke:none;stroke-width:0;stroke-linecap:round;stroke-linejoin:round;stroke-miterlimit:4;stroke-dasharray:none;stroke-opacity:1"
       id="path4504"
       cx="33.816742"
       cy="280.34955"
       rx="7.2585053"
       ry="8.3926458" />
    <path
       style="fill:#0f0f0f;fill-opacity:1;stroke:none;stroke-width:0.25104693px;stroke-linecap:butt;stroke-linejoin:miter;stroke-opacity:1"
       d="m 36.86581,279.38261 c 0,0 15.023367,-12.93828 18.445059,-8.71463 3.421692,4.22365 -2.940518,10.42547 -4.437509,11.54821 -1.49699,1.12274 -11.387817,5.98796 -13.365985,5.23947 -1.978163,-0.74849 -0.641565,-8.07305 -0.641565,-8.07305 z"
       id="path4510"
       inkscape:connector-curvature="0" />
    <path
       inkscape:connector-curvature="0"
       id="path4512"
       d="m 30.952314,279.38261 c 0,0 -15.023366,-12.93828 -18.445059,-8.71463 -3.4216915,4.22365 2.940518,10.42547 4.437509,11.54821 1.496991,1.12274 11.387817,5.98796 13.365985,5.23947 1.978164,-0.74849 0.641565,-8.07305 0.641565,-8.07305 z"
       style="fill:#0f0f0f;fill-opacity:1;stroke:none;stroke-width:0.25104693px;stroke-linecap:butt;stroke-linejoin:miter;stroke-opacity:1" />
    <path
       style="fill:#0f0f0f;fill-opacity:1;stroke:none;stroke-width:0.25104693px;stroke-linecap:butt;stroke-linejoin:miter;stroke-opacity:1"
       d="m 28.675304,237.17658 c 0,0 2.759744,-4.0073 5.217049,-3.85608 2.457307,0.15122 5.557293,3.96949 5.557293,3.96949 l -3.591447,2.19268 -2.910963,-0.34024"
       id="path4518"
       inkscape:connector-curvature="0" />
    <circle
       style="fill:#000000;fill-opacity:1;stroke:none;stroke-width:0;stroke-linecap:round;stroke-linejoin:round;stroke-miterlimit:4;stroke-dasharray:none;stroke-opacity:1"
       id="path4520"
       cx="28.278351"
       cy="240.63571"
       r="3.1944983" />
    <circle
       r="3.1944983"
       cy="240.4845"
       cx="39.619766"
       id="circle4522"
       style="fill:#000000;fill-opacity:1;stroke:none;stroke-width:0;stroke-linecap:round;stroke-linejoin:round;stroke-miterlimit:4;stroke-dasharray:none;stroke-opacity:1" />
    <path
       style="fill:#808080;fill-opacity:1;stroke:none;stroke-width:0;stroke-linecap:round;stroke-linejoin:round;stroke-miterlimit:4;stroke-dasharray:none;stroke-opacity:1"
       d="m 104.78711,31.080078 c -1.86048,0.331224 -3.61723,1.094534 -5.128907,2.228516 l 1.968747,5.638672 -6.68945,2.333984 c -0.0837,0.5587 -0.128075,1.122586 -0.132812,1.6875 0.0046,1.370032 0.242392,2.729284 0.703124,4.019531 l 7.957028,-2.777343 3.69206,10.321185 4.78646,-2.955951 -3.21289,-9.201172 9.20312,-3.212891 -1,-2.863281 c -0.50622,-0.757536 -1.09657,-1.455338 -1.75976,-2.080078 l -8.28125,2.890625 z"
       transform="matrix(0.26458333,0,0,0.26458333,0,229.26665)"
       id="rect4499"
       inkscape:connector-curvature="0"
       sodipodi:nodetypes="ccccccccccccccc" />
    <path
       style="fill:#808080;fill-opacity:1;stroke:none;stroke-width:0;stroke-linecap:round;stroke-linejoin:round;stroke-miterlimit:4;stroke-dasharray:none;stroke-opacity:1"
       d="m 151.70898,30.5 -1.25586,5.445312 -9.20117,-2.123046 c -0.14105,0.144319 -0.27847,0.292152 -0.41211,0.443359 l -1.13672,4.921875 9.49805,2.189453 -3.20103,12.321772 5.75304,0.985748 2.88159,-12.051661 7.02343,1.619141 c 0.10098,-0.612799 0.15452,-1.232477 0.16016,-1.853515 -0.005,-1.360287 -0.239,-2.710019 -0.69336,-3.992188 l -5.23828,-1.208984 1.03516,-4.488282 C 155.38389,31.569898 153.59713,30.812755 151.70898,30.5 Z"
       transform="matrix(0.26458333,0,0,0.26458333,0,229.26665)"
       id="path4505"
       inkscape:connector-curvature="0"
       sodipodi:nodetypes="ccccccccccccccc" />
    <path
       inkscape:connector-curvature="0"
       id="path4526"
       d="m 40.961836,243.86802 c 0,0 -1.209752,0.52927 -2.381696,-1.96584 -1.171948,-2.49512 -1.28536,-3.70487 -1.28536,-3.70487 l -1.436581,1.28536 -0.264632,3.51584 2.192672,2.3817 1.890238,0.22683"
       style="fill:#0f0f0f;fill-opacity:1;stroke:none;stroke-width:0.25104693px;stroke-linecap:butt;stroke-linejoin:miter;stroke-opacity:1" />
    <path
       style="fill:#0f0f0f;fill-opacity:1;stroke:none;stroke-width:0.25104693px;stroke-linecap:butt;stroke-linejoin:miter;stroke-opacity:1"
       d="m 27.049701,243.90582 c 0,0 1.209751,0.52927 2.381695,-1.96584 1.171948,-2.49512 1.285361,-3.70487 1.285361,-3.70487 l 1.436581,1.28537 0.264631,3.51583 -2.192672,2.3817 -1.890237,0.22683"
       id="path4524"
       inkscape:connector-curvature="0" />
  </g>
</svg>
