<?xml version="1.0" encoding="UTF-8" standalone="no"?>
<!-- Created with Inkscape (http://www.inkscape.org/) -->

<svg
   xmlns:dc="http://purl.org/dc/elements/1.1/"
   xmlns:cc="http://creativecommons.org/ns#"
   xmlns:rdf="http://www.w3.org/1999/02/22-rdf-syntax-ns#"
   xmlns:svg="http://www.w3.org/2000/svg"
   xmlns="http://www.w3.org/2000/svg"
   xmlns:sodipodi="http://sodipodi.sourceforge.net/DTD/sodipodi-0.dtd"
   xmlns:inkscape="http://www.inkscape.org/namespaces/inkscape"
   width="256"
   height="400"
   viewBox="0 0 67.733332 105.83334"
   version="1.1"
   id="svg8"
   inkscape:version="0.92.1 r15371"
   sodipodi:docname="frog_tongue.svg"
   inkscape:export-filename="C:\Prog\Projects\burds\frog_tongue.png"
   inkscape:export-xdpi="96"
   inkscape:export-ydpi="96">
  <defs
     id="defs2" />
  <sodipodi:namedview
     id="base"
     pagecolor="#ffffff"
     bordercolor="#666666"
     borderopacity="1.0"
     inkscape:pageopacity="0.0"
     inkscape:pageshadow="2"
     inkscape:zoom="1.6601563"
     inkscape:cx="92.2396"
     inkscape:cy="201.84522"
     inkscape:document-units="mm"
     inkscape:current-layer="layer1"
     showgrid="false"
     units="px"
     inkscape:window-width="1920"
     inkscape:window-height="1017"
     inkscape:window-x="-8"
     inkscape:window-y="-8"
     inkscape:window-maximized="1" />
  <metadata
     id="metadata5">
    <rdf:RDF>
      <cc:Work
         rdf:about="">
        <dc:format>image/svg+xml</dc:format>
        <dc:type
           rdf:resource="http://purl.org/dc/dcmitype/StillImage" />
        <dc:title></dc:title>
      </cc:Work>
    </rdf:RDF>
  </metadata>
  <g
     inkscape:label="Calque 1"
     inkscape:groupmode="layer"
     id="layer1"
     transform="translate(0,-191.16665)">
    <path
       style="fill:#c8c8c8;fill-opacity:1;stroke:none;stroke-width:0;stroke-linecap:round;stroke-linejoin:round;stroke-miterlimit:4;stroke-dasharray:none;stroke-opacity:1"
       d="m 33.707503,193.7604 a 1.6734118,1.8726275 0 0 0 -1.673799,1.87223 1.6734118,1.8726275 0 0 0 0.518314,1.35186 v 32.56804 c -0.06759,0.31991 -0.132411,0.61646 -0.180867,0.81028 -0.169039,0.67616 -1.042315,1.54926 -1.042315,1.54926 l 0.08423,1.29605 1.521354,-0.47853 0.346233,-1.19786 h 0.916223 l 0.346232,1.19786 1.521354,0.47853 0.08475,-1.29605 c 0,0 -0.873273,-0.8731 -1.042312,-1.54926 -0.05403,-0.21613 -0.128191,-0.55994 -0.204121,-0.92242 v -32.49982 a 1.6734118,1.8726275 0 0 0 0.478007,-1.30794 1.6734118,1.8726275 0 0 0 -1.673284,-1.87223 z"
       id="rect5123"
       inkscape:connector-curvature="0" />
    <path
       style="fill:#404040;fill-opacity:1;stroke:none;stroke-width:0.25104693px;stroke-linecap:butt;stroke-linejoin:miter;stroke-opacity:1"
       d="m 24.026437,251.89772 -4.120714,2.87316 c 0,0 -0.07561,-2.04145 0.453657,-2.45731 0.529266,-0.41585 1.398774,-1.77681 2.268282,-1.96584 0.869509,-0.18902 0.982923,-0.15122 0.982923,-0.15122 0,0 1.928041,1.39878 2.381697,0.52927 0.453657,-0.86951 1.323166,-1.24756 0.453657,-1.92804 -0.869509,-0.68048 -1.285361,-1.13414 -1.663408,-0.90731 -0.378047,0.22683 -0.453657,1.17195 -1.776822,0.90731 -1.323164,-0.26464 -1.92804,-0.52927 -2.079259,-0.98293 -0.151219,-0.45365 0,-3.06217 0.604876,-4.12071 0.604875,-1.05853 1.096336,-1.51219 1.096336,-1.51219 0,0 2.041455,-1.5878 0.378047,-2.23047 -1.663407,-0.64268 -2.041454,1.02072 -2.041454,1.02072 0,0 0.07561,0.0756 0.0378,0.71829 -0.0378,0.64269 -0.831704,4.49877 -2.306088,4.27194 -1.474384,-0.22683 -3.893885,-7.48534 -3.893885,-7.48534 0,0 0.64268,-3.09998 -1.171947,-2.53291 -1.814626,0.56706 -0.945118,2.15487 -0.945118,2.15487 0,0 0.756095,0.56706 0.945118,0.94511 0.189024,0.37805 2.192673,5.67071 1.398774,6.42681 -0.793898,0.75609 -5.028027,-1.36098 -5.028027,-1.36098 0,0 -1.8524311,-1.96584 -2.910963,-0.0378 -1.0585321,1.92804 2.5329155,1.39877 2.5329155,1.39877 0,0 3.2512065,0.60488 3.8938865,1.6256 0.64268,1.02073 2.192674,2.68413 2.343892,4.8012 0.151219,2.11707 0.226828,6.65363 1.096337,7.25851 0.869509,0.60487 1.663408,1.28536 4.460957,-0.7939 2.797549,-2.07926 4.763394,-3.96949 4.763394,-3.96949 z"
       id="path4538"
       inkscape:connector-curvature="0" />
    <path
       inkscape:connector-curvature="0"
       id="path4540"
       d="m 44.571724,252.0571 4.120713,2.87316 c 0,0 0.07561,-2.04145 -0.453657,-2.45731 -0.529266,-0.41585 -1.398775,-1.77681 -2.268283,-1.96584 -0.869507,-0.18902 -0.982922,-0.15122 -0.982922,-0.15122 0,0 -1.92804,1.39878 -2.381696,0.52927 -0.453657,-0.86951 -1.323167,-1.24756 -0.453657,-1.92804 0.869508,-0.68048 1.28536,-1.13414 1.663407,-0.90731 0.378047,0.22683 0.453657,1.17195 1.776822,0.90731 1.323164,-0.26464 1.92804,-0.52927 2.079258,-0.98293 0.151219,-0.45365 0,-3.06217 -0.604875,-4.12071 -0.604875,-1.05853 -1.096337,-1.51219 -1.096337,-1.51219 0,0 -2.041453,-1.5878 -0.378046,-2.23047 1.663407,-0.64268 2.041453,1.02072 2.041453,1.02072 0,0 -0.07561,0.0756 -0.0378,0.71829 0.0378,0.64269 0.831703,4.49877 2.306087,4.27194 1.474385,-0.22683 3.893886,-7.48534 3.893886,-7.48534 0,0 -0.64268,-3.09998 1.171946,-2.53291 1.814626,0.56706 0.945118,2.15487 0.945118,2.15487 0,0 -0.756095,0.56706 -0.945118,0.94511 -0.189023,0.37805 -2.192673,5.67071 -1.398774,6.42681 0.793898,0.75609 5.028027,-1.36098 5.028027,-1.36098 0,0 1.852431,-1.96584 2.910963,-0.0378 1.058532,1.92804 -2.532916,1.39877 -2.532916,1.39877 0,0 -3.251206,0.60488 -3.893886,1.6256 -0.64268,1.02073 -2.192673,2.68413 -2.343892,4.8012 -0.151219,2.11707 -0.226828,6.65363 -1.096336,7.25851 -0.86951,0.60487 -1.663409,1.28536 -4.460958,-0.7939 -2.797547,-2.07926 -4.763392,-3.96949 -4.763392,-3.96949 z"
       style="fill:#404040;fill-opacity:1;stroke:none;stroke-width:0.25104693px;stroke-linecap:butt;stroke-linejoin:miter;stroke-opacity:1" />
    <path
       style="fill:#404040;fill-opacity:1;stroke:none;stroke-width:0.25104693px;stroke-linecap:butt;stroke-linejoin:miter;stroke-opacity:1"
       d="m 57.451325,273.68502 c 0,0 -8.288526,12.52867 -11.049217,13.8893 -2.760689,1.36063 -3.551059,2.51532 -4.855723,1.803 -1.304665,-0.71231 -1.574094,-2.40181 -1.244335,-3.04993 0.32976,-0.64813 4.618897,-9.39892 6.028267,-11.08543 1.409371,-1.68653 6.193874,-4.61511 6.654486,-5.12168 0.460612,-0.50656 1.859979,-3.27428 1.794903,-4.02185 -0.06507,-0.74759 0.283798,-1.61531 0.172063,-1.97647 -0.111741,-0.36116 -2.194676,-2.89838 0.02051,-2.92681 2.215187,-0.0284 1.176976,2.62756 1.176976,2.62756 0,0 -0.307472,2.48533 -0.225556,3.33848 0.08191,0.85318 -0.07033,1.25644 0.421677,1.28625 0.492012,0.0298 5.395089,-3.5132 5.849557,-4.39777 0.45447,-0.88457 0.919641,-2.04154 0.919641,-2.04154 0,0 -0.226635,-2.77911 1.5532,-2.14258 1.779836,0.63655 -0.273795,2.6965 -0.273795,2.6965 0,0 -2.690169,3.83979 -3.009228,4.21552 -0.319062,0.37571 -2.231141,2.30482 -1.638094,2.96821 0.593045,0.66337 2.945228,1.1545 3.737177,1.0282 0.791953,-0.12629 2.43163,-2.06611 3.254284,-0.30241 0.822656,1.76369 -1.339735,1.78369 -1.339735,1.78369 0,0 -0.743016,-0.58532 -1.376579,-0.48429 -0.63356,0.10104 -3.921523,0.19227 -4.715754,0.64377 -0.79423,0.45149 -1.854725,1.27028 -1.854725,1.27028 z"
       id="path4514"
       inkscape:connector-curvature="0" />
    <ellipse
       style="fill:#808080;fill-opacity:1;stroke:none;stroke-width:0;stroke-linecap:round;stroke-linejoin:round;stroke-miterlimit:4;stroke-dasharray:none;stroke-opacity:1"
       id="path4496"
       cx="34.043571"
       cy="239.97961"
       rx="7.7121611"
       ry="8.6950855" />
    <ellipse
       style="fill:#808080;fill-opacity:1;stroke:none;stroke-width:0;stroke-linecap:round;stroke-linejoin:round;stroke-miterlimit:4;stroke-dasharray:none;stroke-opacity:1"
       id="path4498"
       cx="34.194794"
       cy="248.6747"
       rx="9.980444"
       ry="12.173118" />
    <ellipse
       style="fill:#808080;fill-opacity:1;stroke:none;stroke-width:0;stroke-linecap:round;stroke-linejoin:round;stroke-miterlimit:4;stroke-dasharray:none;stroke-opacity:1"
       id="path4500"
       cx="34.232597"
       cy="260.54541"
       rx="11.980394"
       ry="16.331636" />
    <ellipse
       style="fill:#808080;fill-opacity:1;stroke:none;stroke-width:0;stroke-linecap:round;stroke-linejoin:round;stroke-miterlimit:4;stroke-dasharray:none;stroke-opacity:1"
       id="path4504"
       cx="33.816742"
       cy="276.87701"
       rx="7.2585053"
       ry="8.3926458" />
    <path
       style="fill:#808080;fill-opacity:1;stroke:none;stroke-width:0.25104693px;stroke-linecap:butt;stroke-linejoin:miter;stroke-opacity:1"
       d="m 36.509444,273.88419 c 0,0 17.905963,-8.51335 20.09129,-3.53625 2.185327,4.9771 -5.588388,9.27939 -7.328663,9.96711 -1.740274,0.68773 -12.56459,2.76932 -14.274994,1.52517 -1.7104,-1.24414 1.512367,-7.95603 1.512367,-7.95603 z"
       id="path4510"
       inkscape:connector-curvature="0" />
    <path
       style="fill:#808080;fill-opacity:1;stroke:none;stroke-width:0.22630732px;stroke-linecap:butt;stroke-linejoin:miter;stroke-opacity:1"
       d="m 28.675304,234.13615 c 0,0 2.759744,-3.25642 5.217049,-3.13353 2.457307,0.12288 5.557293,3.22568 5.557293,3.22568 l -3.591447,1.78182 -2.910963,-0.27649"
       id="path4518"
       inkscape:connector-curvature="0" />
    <circle
       style="fill:#808080;fill-opacity:1;stroke:none;stroke-width:0;stroke-linecap:round;stroke-linejoin:round;stroke-miterlimit:4;stroke-dasharray:none;stroke-opacity:1"
       id="path4520"
       cx="28.278351"
       cy="237.16316"
       r="3.1944983" />
    <circle
       r="3.1944983"
       cy="237.01195"
       cx="39.619766"
       id="circle4522"
       style="fill:#808080;fill-opacity:1;stroke:none;stroke-width:0;stroke-linecap:round;stroke-linejoin:round;stroke-miterlimit:4;stroke-dasharray:none;stroke-opacity:1" />
    <path
       inkscape:connector-curvature="0"
       id="path4526"
       d="m 40.961836,240.39547 c 0,0 -1.209752,0.52927 -2.381696,-1.96584 -1.171948,-2.49512 -1.28536,-3.70487 -1.28536,-3.70487 l -1.436581,1.28536 -0.264632,3.51584 2.192672,2.3817 1.890238,0.22683"
       style="fill:#808080;fill-opacity:1;stroke:none;stroke-width:0.25104693px;stroke-linecap:butt;stroke-linejoin:miter;stroke-opacity:1" />
    <path
       inkscape:connector-curvature="0"
       id="path5133"
       d="m 10.331167,273.68502 c 0,0 8.288526,12.52867 11.049217,13.8893 2.760689,1.36063 3.551059,2.51532 4.855723,1.803 1.304665,-0.71231 1.574094,-2.40181 1.244335,-3.04993 -0.32976,-0.64813 -4.618897,-9.39892 -6.028267,-11.08543 -1.409371,-1.68653 -6.193874,-4.61511 -6.654486,-5.12168 -0.460612,-0.50656 -1.859979,-3.27428 -1.794903,-4.02185 0.06507,-0.74759 -0.283798,-1.61531 -0.172063,-1.97647 0.111741,-0.36116 2.194676,-2.89838 -0.02051,-2.92681 -2.215187,-0.0284 -1.176976,2.62756 -1.176976,2.62756 0,0 0.307472,2.48533 0.225556,3.33848 -0.08191,0.85318 0.07033,1.25644 -0.421677,1.28625 -0.492012,0.0298 -5.3950887,-3.5132 -5.8495567,-4.39777 -0.45447,-0.88457 -0.919641,-2.04154 -0.919641,-2.04154 0,0 0.226635,-2.77911 -1.5532,-2.14258 -1.779836,0.63655 0.273795,2.6965 0.273795,2.6965 0,0 2.690169,3.83979 3.009228,4.21552 0.319062,0.37571 2.231141,2.30482 1.638094,2.96821 -0.593045,0.66337 -2.945228,1.1545 -3.737177,1.0282 -0.791953,-0.12629 -2.43163,-2.06611 -3.254284,-0.30241 -0.82265602,1.76369 1.339735,1.78369 1.339735,1.78369 0,0 0.743016,-0.58532 1.376579,-0.48429 0.63356,0.10104 3.921523,0.19227 4.715754,0.64377 0.79423,0.45149 1.8547247,1.27028 1.8547247,1.27028 z"
       style="fill:#404040;fill-opacity:1;stroke:none;stroke-width:0.25104693px;stroke-linecap:butt;stroke-linejoin:miter;stroke-opacity:1" />
    <path
       inkscape:connector-curvature="0"
       id="path5135"
       d="m 31.273048,273.88419 c 0,0 -17.905963,-8.51335 -20.09129,-3.53625 -2.1853267,4.9771 5.588388,9.27939 7.328663,9.96711 1.740274,0.68773 12.56459,2.76932 14.274994,1.52517 1.7104,-1.24414 -1.512367,-7.95603 -1.512367,-7.95603 z"
       style="fill:#808080;fill-opacity:1;stroke:none;stroke-width:0.25104693px;stroke-linecap:butt;stroke-linejoin:miter;stroke-opacity:1" />
  </g>
</svg>
