<?xml version="1.0" encoding="UTF-8" standalone="no"?>
<!-- Created with Inkscape (http://www.inkscape.org/) -->

<svg
   xmlns:dc="http://purl.org/dc/elements/1.1/"
   xmlns:cc="http://creativecommons.org/ns#"
   xmlns:rdf="http://www.w3.org/1999/02/22-rdf-syntax-ns#"
   xmlns:svg="http://www.w3.org/2000/svg"
   xmlns="http://www.w3.org/2000/svg"
   xmlns:sodipodi="http://sodipodi.sourceforge.net/DTD/sodipodi-0.dtd"
   xmlns:inkscape="http://www.inkscape.org/namespaces/inkscape"
   width="256"
   height="400"
   viewBox="0 0 67.733332 105.83334"
   version="1.1"
   id="svg8"
   inkscape:version="0.92.1 r15371"
   sodipodi:docname="frog_jump.svg"
   inkscape:export-filename="C:\Prog\Projects\burds\frog_jump.png"
   inkscape:export-xdpi="96"
   inkscape:export-ydpi="96">
  <defs
     id="defs2" />
  <sodipodi:namedview
     id="base"
     pagecolor="#ffffff"
     bordercolor="#666666"
     borderopacity="1.0"
     inkscape:pageopacity="0.0"
     inkscape:pageshadow="2"
     inkscape:zoom="1.6601563"
     inkscape:cx="89.563628"
     inkscape:cy="235.25687"
     inkscape:document-units="mm"
     inkscape:current-layer="layer1"
     showgrid="false"
     units="px"
     inkscape:window-width="1920"
     inkscape:window-height="1017"
     inkscape:window-x="-8"
     inkscape:window-y="-8"
     inkscape:window-maximized="1" />
  <metadata
     id="metadata5">
    <rdf:RDF>
      <cc:Work
         rdf:about="">
        <dc:format>image/svg+xml</dc:format>
        <dc:type
           rdf:resource="http://purl.org/dc/dcmitype/StillImage" />
        <dc:title></dc:title>
      </cc:Work>
    </rdf:RDF>
  </metadata>
  <g
     inkscape:label="Calque 1"
     inkscape:groupmode="layer"
     id="layer1"
     transform="translate(0,-191.16665)">
    <path
       id="path4556"
       d="m 58.497137,192.8341 c 0.129481,-0.006 0.27843,0.0156 0.448551,0.0687 1.814626,0.56706 0.945163,2.1549 0.945163,2.1549 0,0 -0.756139,0.5666 -0.945163,0.94465 -0.189023,0.37805 -2.192779,5.6709 -1.39888,6.427 0.793898,0.75609 5.028116,-1.36116 5.028116,-1.36116 0,0 1.852402,-1.96576 2.910934,-0.0377 1.058532,1.92804 -2.533179,1.39888 -2.533179,1.39888 0,0 -3.251139,0.60502 -3.893819,1.62574 -0.64268,1.02073 -2.192825,2.68419 -2.344043,4.80126 -0.08033,1.1247 -0.140481,2.92928 -0.308508,4.46742 0,0 -0.751009,5.17841 -2.517159,8.07651 -1.766151,2.8981 -8.805148,7.4905 -8.805148,7.4905 l -4.70152,-4.86068 c 0,0 4.78117,-2.23127 7.092072,-3.50625 2.310902,-1.27498 3.66541,-2.7094 3.66541,-2.7094 l 1.532723,-6.33501 c 0.0032,-0.52428 -0.02869,-1.87163 -0.456304,-2.20762 -0.529265,-0.41585 -1.399087,-1.77674 -2.268595,-1.96577 -0.869509,-0.18902 -0.982885,-0.15089 -0.982885,-0.15089 0,0 -1.928111,1.39867 -2.381767,0.52916 -0.453657,-0.86951 -1.322712,-1.24756 -0.453203,-1.92804 0.869509,-0.68048 1.284901,-1.13427 1.662948,-0.90744 0.378047,0.22683 0.453988,1.17208 1.777152,0.90744 1.323164,-0.26464 1.927724,-0.52923 2.078943,-0.98289 0.15122,-0.45365 2.62e-4,-3.06214 -0.604614,-4.12068 -0.604875,-1.05853 -1.096574,-1.51257 -1.096574,-1.51257 0,0 -2.041162,-1.58768 -0.377755,-2.23035 1.663408,-0.64268 2.04122,1.02061 2.04122,1.02061 0,0 -0.07553,0.0756 -0.03772,0.7183 0.0378,0.64269 0.831935,4.49892 2.306319,4.27209 1.474384,-0.22683 3.893819,-7.48533 3.893819,-7.48533 0,0 -0.528177,-2.54609 0.72347,-2.60139 z"
       style="fill:#404040;fill-opacity:1;stroke:none;stroke-width:0.25104693px;stroke-linecap:butt;stroke-linejoin:miter;stroke-opacity:1"
       inkscape:connector-curvature="0" />
    <path
       style="fill:#404040;fill-opacity:1;stroke:none;stroke-width:0.25104693px;stroke-linecap:butt;stroke-linejoin:miter;stroke-opacity:1"
       d="m 9.1379433,192.83409 c -0.1294807,-0.006 -0.27843,0.0156 -0.4485513,0.0687 -1.814626,0.56706 -0.945162,2.15491 -0.945162,2.15491 0,0 0.7561389,0.5666 0.945162,0.94465 0.1890239,0.37805 2.19278,5.67089 1.398881,6.42699 -0.7938985,0.75609 -5.0281168,-1.36115 -5.0281168,-1.36115 0,0 -1.8524016,-1.96577 -2.9109334,-0.0377 -1.0585321,1.92804 2.5331788,1.39888 2.5331788,1.39888 0,0 3.2511393,0.60502 3.8938189,1.62574 0.64268,1.02073 2.1928255,2.68419 2.3440435,4.80126 0.08033,1.1247 0.14048,2.92929 0.308508,4.46743 0,0 0.751008,5.17841 2.517159,8.07651 1.76615,2.8981 8.805147,7.4905 8.805147,7.4905 l 4.701521,-4.86069 c 0,0 -4.781171,-2.23126 -7.092073,-3.50624 -2.310902,-1.27498 -3.665409,-2.7094 -3.665409,-2.7094 l -1.532723,-6.33501 c -0.0032,-0.52428 0.02869,-1.87163 0.456303,-2.20762 0.529266,-0.41585 1.399087,-1.77674 2.268595,-1.96577 0.869509,-0.18902 0.982886,-0.1509 0.982886,-0.1509 0,0 1.928111,1.39868 2.381767,0.52917 0.453657,-0.86951 1.322711,-1.24757 0.453202,-1.92805 -0.869509,-0.68048 -1.2849,-1.13427 -1.662947,-0.90744 -0.378047,0.22683 -0.453988,1.17208 -1.777153,0.90744 -1.323164,-0.26464 -1.927724,-0.52922 -2.078943,-0.98288 -0.151219,-0.45365 -2.62e-4,-3.06214 0.604614,-4.12068 0.604875,-1.05853 1.096574,-1.51257 1.096574,-1.51257 0,0 2.041163,-1.58769 0.377755,-2.23036 -1.663407,-0.64268 -2.041219,1.02061 -2.041219,1.02061 0,0 0.07553,0.0756 0.03772,0.71831 -0.0378,0.64269 -0.831936,4.49892 -2.306319,4.27209 -1.474384,-0.22683 -3.8938196,-7.48533 -3.8938196,-7.48533 0,0 0.5281776,-2.54609 -0.7234701,-2.6014 z"
       id="path4538"
       inkscape:connector-curvature="0" />
    <path
       style="fill:#404040;fill-opacity:1;stroke:none;stroke-width:0.25104693px;stroke-linecap:butt;stroke-linejoin:miter;stroke-opacity:1"
       d="m 49.008449,277.97878 c 0,0 1.918892,-14.89915 3.797422,-17.33717 1.878525,-2.438 2.079136,-3.82282 3.564186,-3.75837 1.485054,0.0644 2.471467,1.4623 2.461082,2.18941 -0.01038,0.72712 -0.0041,10.47254 -0.525995,12.60755 -0.521878,2.13502 -3.526099,6.87239 -3.716326,7.53011 -0.190232,0.65771 -0.226655,3.75886 0.161209,4.40125 0.387853,0.64242 0.457109,1.57506 0.716575,1.85002 0.259492,0.27493 3.24737,1.63456 1.271424,2.6363 -1.97595,1.00174 -2.214476,-1.83996 -2.214476,-1.83996 0,0 -0.819269,-2.36647 -1.268788,-3.09621 -0.449501,-0.72977 -0.490574,-1.15884 -0.945362,-0.96877 -0.4548,0.19006 -3.294679,5.53125 -3.312808,6.52557 -0.01813,0.99432 0.07418,2.23788 0.07418,2.23788 0,0 1.428187,2.39481 -0.450007,2.6078 -1.878202,0.21295 -0.942568,-2.5412 -0.942568,-2.5412 0,0 0.722663,-4.63236 0.843487,-5.11024 0.120836,-0.47787 0.987066,-3.05219 0.162362,-3.38633 -0.824748,-0.334 -3.152586,0.2616 -3.807832,0.72399 -0.655243,0.46238 -1.27223,2.92626 -2.787952,1.70562 -1.515716,-1.22065 0.416555,-2.19156 0.416555,-2.19156 0,0 0.924927,0.19796 1.449123,-0.17194 0.524187,-0.3699 3.435444,-1.90079 3.949417,-2.65609 0.513976,-0.75531 1.105096,-1.95766 1.105096,-1.95766 z"
       id="path4514"
       inkscape:connector-curvature="0" />
    <ellipse
       style="fill:#808080;fill-opacity:1;stroke:none;stroke-width:0;stroke-linecap:round;stroke-linejoin:round;stroke-miterlimit:4;stroke-dasharray:none;stroke-opacity:1"
       id="path4496"
       cx="34.043571"
       cy="214.23003"
       rx="7.7121611"
       ry="8.6950855" />
    <ellipse
       style="fill:#808080;fill-opacity:1;stroke:none;stroke-width:0;stroke-linecap:round;stroke-linejoin:round;stroke-miterlimit:4;stroke-dasharray:none;stroke-opacity:1"
       id="path4498"
       cx="34.194794"
       cy="222.92511"
       rx="9.980444"
       ry="12.173118" />
    <ellipse
       style="fill:#808080;fill-opacity:1;stroke:none;stroke-width:0;stroke-linecap:round;stroke-linejoin:round;stroke-miterlimit:4;stroke-dasharray:none;stroke-opacity:1"
       id="path4500"
       cx="34.232597"
       cy="234.79581"
       rx="15.008472"
       ry="16.331636" />
    <ellipse
       style="fill:#808080;fill-opacity:1;stroke:none;stroke-width:0;stroke-linecap:round;stroke-linejoin:round;stroke-miterlimit:4;stroke-dasharray:none;stroke-opacity:1"
       id="path4504"
       cx="33.816742"
       cy="251.12741"
       rx="7.2585053"
       ry="8.3926458" />
    <path
       style="fill:#808080;fill-opacity:1;stroke:none;stroke-width:0.25104693px;stroke-linecap:butt;stroke-linejoin:miter;stroke-opacity:1"
       d="m 41.523133,248.46271 c 0,0 18.903247,5.98062 17.108459,11.1115 -1.794788,5.13088 -10.414837,2.97797 -12.156801,2.29453 -1.741964,-0.68344 -11.079539,-6.54079 -11.482484,-8.61709 -0.402944,-2.07629 6.530826,-4.78894 6.530826,-4.78894 z"
       id="path4510"
       inkscape:connector-curvature="0" />
    <path
       style="fill:#808080;fill-opacity:1;stroke:none;stroke-width:0.25104693px;stroke-linecap:butt;stroke-linejoin:miter;stroke-opacity:1"
       d="m 28.675304,207.95444 c 0,0 2.759744,-4.0073 5.217049,-3.85608 2.457307,0.15122 5.557293,3.96949 5.557293,3.96949 l -3.591447,2.19268 -2.910963,-0.34024"
       id="path4518"
       inkscape:connector-curvature="0" />
    <circle
       style="fill:#ffffff;fill-opacity:1;stroke:none;stroke-width:0;stroke-linecap:round;stroke-linejoin:round;stroke-miterlimit:4;stroke-dasharray:none;stroke-opacity:1"
       id="path4520"
       cx="28.278351"
       cy="211.41357"
       r="3.1944983" />
    <circle
       r="3.1944983"
       cy="211.26236"
       cx="39.619766"
       id="circle4522"
       style="fill:#ffffff;fill-opacity:1;stroke:none;stroke-width:0;stroke-linecap:round;stroke-linejoin:round;stroke-miterlimit:4;stroke-dasharray:none;stroke-opacity:1" />
    <path
       style="fill:#808080;fill-opacity:1;stroke:none;stroke-width:0.25104693px;stroke-linecap:butt;stroke-linejoin:miter;stroke-opacity:1"
       d="m 27.049701,214.68368 c 0,0 1.209751,0.52927 2.381695,-1.96584 1.171948,-2.49512 1.285361,-3.70487 1.285361,-3.70487 l 1.436581,1.28537 0.264631,3.51583 -2.192672,2.3817 -1.890237,0.22683"
       id="path4524"
       inkscape:connector-curvature="0" />
    <path
       inkscape:connector-curvature="0"
       id="path4526"
       d="m 40.961836,214.64588 c 0,0 -1.209752,0.52927 -2.381696,-1.96584 -1.171948,-2.49512 -1.28536,-3.70487 -1.28536,-3.70487 l -1.436581,1.28536 -0.264632,3.51584 2.192672,2.3817 1.890238,0.22683"
       style="fill:#808080;fill-opacity:1;stroke:none;stroke-width:0.25104693px;stroke-linecap:butt;stroke-linejoin:miter;stroke-opacity:1" />
    <path
       style="fill:#000000;fill-opacity:1;stroke:none;stroke-width:0;stroke-linecap:round;stroke-linejoin:round;stroke-miterlimit:4;stroke-dasharray:none;stroke-opacity:1"
       d="m 27.072315,208.45753 a 3.1944982,3.1944982 0 0 0 -1.988272,2.95618 3.1944982,3.1944982 0 0 0 0.0407,0.49915 2.0316297,2.0984596 0 0 0 1.50285,0.6894 2.0316297,2.0984596 0 0 0 2.031421,-2.0986 2.0316297,2.0984596 0 0 0 -1.586696,-2.04613 z"
       id="path4528"
       inkscape:connector-curvature="0" />
    <path
       style="fill:#000000;fill-opacity:1;stroke:none;stroke-width:0;stroke-linecap:round;stroke-linejoin:round;stroke-miterlimit:4;stroke-dasharray:none;stroke-opacity:1"
       d="m 40.535687,208.20354 a 2.1118257,1.9113359 63.835036 0 0 -0.667333,2.67522 2.1118257,1.9113359 63.835036 0 0 2.646781,1.05224 2.1118257,1.9113359 63.835036 0 0 0.253497,-0.15445 3.1944982,3.1944982 0 0 0 0.0456,-0.51436 3.1944982,3.1944982 0 0 0 -2.278545,-3.05865 z"
       id="path4533"
       inkscape:connector-curvature="0" />
    <path
       inkscape:connector-curvature="0"
       id="path4542"
       d="m 19.79494,278.65886 c 0,0 -2.271016,-14.84955 -4.206726,-17.24242 -1.935706,-2.39285 -2.169041,-3.77254 -3.652148,-3.67295 -1.483113,0.0996 -2.4361622,1.52039 -2.4085696,2.24705 0.027589,0.72667 0.2519928,10.4695 0.8242676,12.59156 0.572267,2.12207 3.68778,6.78701 3.893522,7.44004 0.205746,0.65302 0.315563,3.75244 -0.05699,4.40383 -0.372538,0.65142 -0.4197,1.58544 -0.672585,1.86646 -0.252912,0.281 -3.20777,1.71097 -1.208667,2.66566 1.999108,0.95469 2.170304,-1.89186 2.170304,-1.89186 0,0 0.763026,-2.3852 1.195146,-3.12537 0.432101,-0.74021 0.463007,-1.17013 0.922166,-0.99088 0.459172,0.17924 3.424681,5.45172 3.466341,6.44533 0.04166,0.99361 -0.02119,2.23901 -0.02119,2.23901 0,0 -1.371102,2.42794 0.511607,2.59641 1.882717,0.16844 0.882155,-2.5628 0.882155,-2.5628 0,0 -0.832109,-4.61395 -0.96421,-5.08883 -0.132113,-0.47488 -1.059035,-3.02798 -0.242471,-3.38155 0.816612,-0.35342 3.157895,0.18691 3.823902,0.63366 0.666004,0.44674 1.341138,2.89532 2.827542,1.63915 1.486399,-1.25619 -0.468312,-2.18109 -0.468312,-2.18109 0,0 -0.919982,0.2198 -1.452786,-0.13759 -0.532796,-0.35738 -3.479474,-1.81894 -4.011181,-2.56186 -0.53171,-0.74293 -1.151124,-1.93096 -1.151124,-1.93096 z"
       style="fill:#404040;fill-opacity:1;stroke:none;stroke-width:0.25104693px;stroke-linecap:butt;stroke-linejoin:miter;stroke-opacity:1" />
    <path
       inkscape:connector-curvature="0"
       id="path4544"
       d="m 26.663847,248.46271 c 0,0 -18.9032467,5.98062 -17.1084587,11.1115 1.7947877,5.13088 10.4148367,2.97797 12.1568007,2.29453 1.741964,-0.68344 11.079539,-6.54079 11.482484,-8.61709 0.402944,-2.07629 -6.530826,-4.78894 -6.530826,-4.78894 z"
       style="fill:#808080;fill-opacity:1;stroke:none;stroke-width:0.25104693px;stroke-linecap:butt;stroke-linejoin:miter;stroke-opacity:1" />
    <path
       style="fill:#808080;fill-opacity:1;stroke:none;stroke-width:0.26458332px;stroke-linecap:butt;stroke-linejoin:miter;stroke-opacity:1"
       d="m 21.524441,250.76114 c 0,0 2.366562,-1.29598 2.084828,-2.76099 -0.281733,-1.46502 -2.253868,-4.84582 -2.253868,-4.84582 l 1.465014,-4.56408 12.114541,3.54984 -6.536216,8.00123"
       id="path4546"
       inkscape:connector-curvature="0" />
    <path
       inkscape:connector-curvature="0"
       id="path4548"
       d="m 47.049498,250.76114 c 0,0 -2.366562,-1.29598 -2.084828,-2.76099 0.281733,-1.46502 2.253868,-4.84582 2.253868,-4.84582 l -1.465014,-4.56408 -12.114541,3.54984 6.536216,8.00123"
       style="fill:#808080;fill-opacity:1;stroke:none;stroke-width:0.26458332px;stroke-linecap:butt;stroke-linejoin:miter;stroke-opacity:1" />
  </g>
</svg>
