<?xml version="1.0" encoding="UTF-8" standalone="no"?>
<!-- Created with Inkscape (http://www.inkscape.org/) -->

<svg
   xmlns:dc="http://purl.org/dc/elements/1.1/"
   xmlns:cc="http://creativecommons.org/ns#"
   xmlns:rdf="http://www.w3.org/1999/02/22-rdf-syntax-ns#"
   xmlns:svg="http://www.w3.org/2000/svg"
   xmlns="http://www.w3.org/2000/svg"
   xmlns:sodipodi="http://sodipodi.sourceforge.net/DTD/sodipodi-0.dtd"
   xmlns:inkscape="http://www.inkscape.org/namespaces/inkscape"
   width="424"
   height="424"
   viewBox="0 0 112.18333 112.18333"
   version="1.1"
   id="svg8"
   inkscape:version="0.92.2 (5c3e80d, 2017-08-06)"
   sodipodi:docname="tree_2.svg"
   inkscape:export-filename="C:\Prog\Projets\burds\tree_2.png"
   inkscape:export-xdpi="96"
   inkscape:export-ydpi="96">
  <defs
     id="defs2" />
  <sodipodi:namedview
     id="base"
     pagecolor="#ffffff"
     bordercolor="#666666"
     borderopacity="1.0"
     inkscape:pageopacity="0.0"
     inkscape:pageshadow="2"
     inkscape:zoom="1.4"
     inkscape:cx="166.782"
     inkscape:cy="204.03106"
     inkscape:document-units="mm"
     inkscape:current-layer="layer1"
     showgrid="false"
     units="px"
     fit-margin-top="0"
     fit-margin-left="0"
     fit-margin-right="0"
     fit-margin-bottom="0"
     inkscape:window-width="1920"
     inkscape:window-height="1017"
     inkscape:window-x="-8"
     inkscape:window-y="-8"
     inkscape:window-maximized="1" />
  <metadata
     id="metadata5">
    <rdf:RDF>
      <cc:Work
         rdf:about="">
        <dc:format>image/svg+xml</dc:format>
        <dc:type
           rdf:resource="http://purl.org/dc/dcmitype/StillImage" />
        <dc:title></dc:title>
      </cc:Work>
    </rdf:RDF>
  </metadata>
  <g
     inkscape:label="Layer 1"
     inkscape:groupmode="layer"
     id="layer1"
     transform="translate(-15.561028,-185.85206)">
    <path
       style="fill:#291d0f;fill-opacity:1;stroke:none;stroke-width:0.26458332px;stroke-linecap:butt;stroke-linejoin:miter;stroke-opacity:1"
       d="m 60.486134,296.35852 c 0,0 4.409945,-2.87314 4.476763,-3.27405 0.06682,-0.4009 1.202714,-9.55489 1.202714,-9.95579 0,-0.4009 0.734991,-5.74629 0.467722,-6.08038 -0.267271,-0.33409 -2.204974,-4.27631 -2.204974,-4.27631 0,0 0.267269,-0.86863 0.734991,-0.93545 0.46772,-0.0668 -0.06682,-5.81311 -0.06682,-5.81311 0,0 0.534537,-1.40316 -0.467723,-3.87541 -1.00226,-2.47224 -2.204974,-8.0849 -2.071338,-8.55262 0.133636,-0.46772 -0.133636,-1.87089 2.071338,-2.80633 2.204974,-0.93545 1.870887,-0.66817 4.142679,-2.60588 2.271789,-1.9377 6.414469,-1.9377 6.080382,-1.60362 -0.334087,0.33409 -1.469983,7.41673 -2.33861,8.55263 -0.868624,1.13589 -2.605878,3.20723 -2.605878,3.94222 0,0.735 -0.801807,3.74178 -0.734989,4.54359 0.06682,0.8018 0,4.74403 0.200451,5.54584 0.200451,0.80181 0.668173,5.0113 0.668173,5.34539 0,0.33409 -0.200451,1.20271 0.133636,1.20271 0.334087,0 1.269529,-0.4009 1.269529,-0.4009 0,0 0.868627,-2.47225 1.069078,-3.0736 0.200454,-0.60136 1.469983,-3.67496 1.670436,-4.34313 0.200451,-0.66818 1.069078,-4.54358 1.269529,-5.07812 0.200451,-0.53454 -0.200451,-2.73952 0.734992,-4.07586 0.935442,-1.33635 3.808589,-8.28536 3.875407,-8.61944 0.06682,-0.33409 3.608139,-0.86863 4.276312,-0.60136 0.668174,0.26727 3.006784,2.80633 2.739515,2.93996 -0.267272,0.13364 -3.34087,3.74178 -4.009044,4.6104 -0.668173,0.86863 -4.409947,6.08038 -4.476765,6.34765 -0.06682,0.26727 -1.737252,5.81311 -1.937703,6.48129 -0.200453,0.66817 -1.002263,3.4745 -1.135896,4.00904 -0.133635,0.53454 0.133633,1.5368 0.06682,1.93771 -0.06682,0.4009 -1.937705,4.07586 -2.071341,4.74403 -0.133633,0.66817 -2.00452,4.07586 -2.204971,4.6104 -0.200454,0.53454 -0.734991,3.20723 -0.668176,4.27631 0.06682,1.06908 1.737254,3.94223 2.004523,4.47677 0.267269,0.53454 1.804069,1.20271 2.071338,1.46998 0.267269,0.26727 1.870887,0.86863 1.870887,0.86863 0,0 -1.5368,1.46998 -1.870887,1.5368 -0.334087,0.0668 -2.939965,0.33408 -4.142676,0.13363 -1.202714,-0.20045 -8.084905,-0.46772 -8.48581,-0.46772 -0.400904,0 -1.603615,-1.1359 -1.603615,-1.1359 z"
       id="path4597"
       inkscape:connector-curvature="0" />
    <path
       style="fill:#1f510c;fill-opacity:1;stroke:none;stroke-width:0.99999994"
       d="M 198.92773,-80.572266 A 76.785711,62.142853 0 0 0 122.14258,-18.427734 76.785711,62.142853 0 0 0 136.43359,17.544922 99.64286,75.357142 0 0 0 116.5332,36.285156 72.85714,62.857145 0 0 0 51.427734,98.714844 72.85714,62.857145 0 0 0 73.738281,143.88867 102.14286,70.357137 0 0 0 65.714844,171.21484 102.14286,70.357137 0 0 0 167.85742,241.57227 102.14286,70.357137 0 0 0 259.99219,201.38672 96.428573,80.714289 0 0 0 340.71484,238 96.428573,80.714289 0 0 0 428.1582,191.09766 69.285711,60.357142 0 0 0 475,134.07227 69.285711,60.357142 0 0 0 415.41016,74.382812 a 76.785711,58.214286 0 0 0 0.30468,-4.597656 76.785711,58.214286 0 0 0 -14.91406,-34.357422 52.5,48.571429 0 0 0 12.77149,-31.7128902 52.5,48.571429 0 0 0 -52.5,-48.5722658 52.5,48.571429 0 0 0 -17.18946,2.736328 64.285713,56.428564 0 0 0 -50.31054,-21.30664 64.285713,56.428564 0 0 0 -32.9961,8.070312 76.785711,62.142853 0 0 0 -61.64844,-25.214844 z"
       id="path4607"
       inkscape:connector-curvature="0"
       transform="matrix(0.26458333,0,0,0.26458333,1.9541072,207.8648)" />
  </g>
</svg>
