<?xml version="1.0" encoding="UTF-8" standalone="no"?>
<!-- Created with Inkscape (http://www.inkscape.org/) -->

<svg
   xmlns:dc="http://purl.org/dc/elements/1.1/"
   xmlns:cc="http://creativecommons.org/ns#"
   xmlns:rdf="http://www.w3.org/1999/02/22-rdf-syntax-ns#"
   xmlns:svg="http://www.w3.org/2000/svg"
   xmlns="http://www.w3.org/2000/svg"
   xmlns:sodipodi="http://sodipodi.sourceforge.net/DTD/sodipodi-0.dtd"
   xmlns:inkscape="http://www.inkscape.org/namespaces/inkscape"
   width="512"
   height="338"
   viewBox="0 0 135.46666 89.429168"
   version="1.1"
   id="svg8"
   inkscape:version="0.92.2 (5c3e80d, 2017-08-06)"
   sodipodi:docname="tree_1.svg"
   inkscape:export-filename="C:\Prog\Projets\burds\tree_1.png"
   inkscape:export-xdpi="96"
   inkscape:export-ydpi="96">
  <defs
     id="defs2" />
  <sodipodi:namedview
     id="base"
     pagecolor="#ffffff"
     bordercolor="#666666"
     borderopacity="1.0"
     inkscape:pageopacity="0.0"
     inkscape:pageshadow="2"
     inkscape:zoom="1.4"
     inkscape:cx="116.15111"
     inkscape:cy="239.63235"
     inkscape:document-units="mm"
     inkscape:current-layer="layer1"
     showgrid="false"
     units="px"
     fit-margin-top="0"
     fit-margin-left="0"
     fit-margin-right="0"
     fit-margin-bottom="0"
     inkscape:window-width="1920"
     inkscape:window-height="1017"
     inkscape:window-x="-8"
     inkscape:window-y="-8"
     inkscape:window-maximized="1" />
  <metadata
     id="metadata5">
    <rdf:RDF>
      <cc:Work
         rdf:about="">
        <dc:format>image/svg+xml</dc:format>
        <dc:type
           rdf:resource="http://purl.org/dc/dcmitype/StillImage" />
        <dc:title />
      </cc:Work>
    </rdf:RDF>
  </metadata>
  <g
     inkscape:label="Layer 1"
     inkscape:groupmode="layer"
     id="layer1"
     transform="translate(-1.9541072,-207.8648)">
    <path
       style="fill:#372e1e;fill-opacity:1;stroke:none;stroke-width:0.20253186px;stroke-linecap:butt;stroke-linejoin:miter;stroke-opacity:1"
       d="m 60.057086,296.62886 c 0,0 4.80782,-1.53441 5.268144,-2.91538 0.460321,-1.38096 0.153439,-9.82023 0.153439,-10.38286 0,-0.5626 -0.204587,-4.09176 -1.074088,-4.96125 -0.869497,-0.8695 -3.529144,-3.27341 -4.603231,-3.32456 -1.074088,-0.0513 -1.38097,-0.25574 -2.199322,-0.76721 -0.818353,-0.51147 -1.02294,-1.5344 -1.585557,-1.73899 -0.562618,-0.2046 -2.966527,-0.81835 -4.910114,-0.71606 -1.943587,0.10229 -3.222262,-0.40918 -4.500939,0.35802 -1.278674,0.76721 -4.858967,3.11997 -6.597965,2.65966 -1.738998,-0.46034 -4.705527,-1.58557 -6.086495,-1.79016 -1.380971,-0.20457 -0.716059,-0.81835 -2.966528,-1.22752 -2.250469,-0.40918 -4.552084,-2.45506 -5.165848,-2.71079 -0.613765,-0.25575 -0.613765,-0.35804 -1.841294,-0.46033 -1.227529,-0.10229 -3.887172,-1.94359 -3.887172,-1.94359 l 5.881907,1.32983 c 0,0 -0.05115,-0.35803 -0.102299,-1.22753 -0.05115,-0.8695 0.102299,-1.63671 -0.358029,-2.04588 -0.460324,-0.40918 -1.943588,-4.55209 -1.943588,-4.55209 0,0 1.176381,1.43213 1.790146,2.30163 0.613765,0.86948 0,1.89243 1.125235,1.48326 1.125234,-0.40918 3.580291,-1.48326 3.580291,-1.48326 0,0 -3.017675,1.89243 -3.017675,2.09701 0,0.20459 0,1.89244 0.1023,2.55737 0.102299,0.6649 0.204589,1.48325 0.716057,1.89242 0.511471,0.40919 7.007143,3.22226 8.030083,3.42687 1.022942,0.20459 3.733734,0.92063 4.756674,0.6649 1.022939,-0.25574 7.007141,-2.76195 7.467466,-2.81309 0.460321,-0.0512 1.227527,0.40917 0.204588,-0.66491 -1.022941,-1.07409 -1.636707,-2.09702 -2.608499,-2.45505 -0.971794,-0.35804 -2.045881,-0.61377 -3.017673,-0.81835 -0.971796,-0.20459 -3.63144,-0.20459 -4.961262,-1.8413 -1.329825,-1.6367 -1.841294,-5.16585 -1.841294,-5.16585 l 3.171116,-0.15344 c 0,0 -2.506205,-0.7672 -1.176381,1.27868 1.329821,2.04588 1.790147,3.88717 2.710791,4.14291 0.920647,0.25572 4.603231,0.81835 5.114703,0.9718 0.511471,0.15344 2.199322,1.32982 2.864232,1.94358 0.664913,0.61376 1.125235,2.19932 1.585558,2.25046 0.460323,0.0513 2.659647,0.0513 2.659647,0.0513 l -1.329826,-1.99473 c 0,0 -1.432114,-1.58555 -1.687849,-1.94358 -0.255734,-0.35803 -2.710792,-4.80782 -2.710792,-4.80782 l 1.943584,-0.15344 c 0,0 0.8695,3.22226 2.352766,4.39864 1.483262,1.17638 2.148173,1.8413 2.659644,2.5062 0.511469,0.66492 1.483263,2.19933 1.483263,2.19933 0,0 2.097028,0.71607 2.710793,0.81835 0.613766,0.10229 2.710792,1.94359 3.171115,2.19932 0.460325,0.25574 1.176381,0.81834 1.534411,0.51147 0.358027,-0.30688 1.278676,-1.79014 0.562618,-2.81307 -0.716061,-1.02296 -1.687853,-1.99476 -2.352765,-2.86425 -0.66491,-0.8695 -1.022939,-1.38097 -1.534409,-1.79014 -0.51147,-0.40919 -1.329822,-1.48327 -2.864234,-2.40391 -1.53441,-0.92066 -6.239937,-5.26815 -6.239937,-5.26815 l 3.426852,-0.30689 c 0,0 -0.8695,-0.10228 2.148175,2.14818 3.017674,2.25048 3.631436,3.32457 4.398643,3.88718 0.767205,0.56262 2.04588,1.17638 2.148175,1.739 0.102299,0.5626 1.125234,2.25047 1.125234,2.25047 0,0 -0.716059,-4.24521 -1.074087,-4.96127 -0.35803,-0.71605 -0.460325,-1.38096 -1.125234,-2.40391 -0.664913,-1.02294 -2.557351,-4.50092 -2.557351,-4.50092 l 3.171115,-1.0741 c 0,0 1.89244,1.38097 2.097027,2.14817 0.204589,0.7672 1.687852,5.62618 1.841293,6.39339 0.153442,0.7672 0.306881,7.7232 1.227529,8.33696 0.920645,0.61375 2.045881,-0.30688 2.301615,-0.66491 0.255735,-0.35803 1.534412,-2.60851 1.534412,-2.60851 0,0 0.204587,-2.14817 0.153441,-2.45504 -0.05115,-0.3069 -1.483263,-4.39865 -1.483263,-4.39865 0,0 -1.636705,-2.86424 -0.8695,-2.81309 0.767205,0.0513 2.097027,-1.02295 2.097027,-0.46032 0,0.56261 -0.66491,2.14818 0.664912,3.11997 1.329822,0.97178 2.04588,1.27867 2.04588,1.27867 l 1.278676,-3.22227 c 0,0 2.045881,-3.63142 2.915381,-3.98946 0.869498,-0.35804 3.171113,-0.8695 3.171113,-0.8695 l 0.71606,2.86423 c 0,0 -2.557352,2.65965 -3.068822,4.04063 -0.511469,1.38097 -3.324556,5.98419 -3.324556,5.98419 0,0 -1.687852,2.91539 -1.790145,3.27342 -0.1023,0.35802 -2.506204,3.32455 -2.557351,3.88717 -0.05115,0.5626 -1.125236,2.50619 -0.8695,3.01768 0.255735,0.51146 0.8695,1.48324 0.8695,1.48324 0,0 0.818352,-1.38096 1.125234,-1.4321 0.306883,-0.0512 3.836026,-2.55735 3.887174,-2.86424 0.05114,-0.30688 1.074087,-1.89244 1.227527,-2.45505 0.153442,-0.56263 0.613766,-1.38097 0.460325,-1.79014 -0.153442,-0.4092 -0.511472,-0.86951 -0.767208,-1.58557 -0.255734,-0.71606 -1.022938,-3.06881 -1.176379,-3.27341 -0.153443,-0.20458 0.460322,-4.14291 0.460322,-4.14291 h 1.790145 c 0,0 -0.05115,1.43211 0.306883,3.3757 0.358029,1.9436 0.409176,3.83603 0.971795,4.04062 0.562617,0.2046 1.329822,0.61377 2.91538,0.66491 1.585556,0.0512 3.22226,0.61378 3.836025,0.61378 0.613765,0 1.02294,0.0513 0.8695,-0.56263 -0.153441,-0.61376 -0.409178,-0.61376 -0.511469,-1.27866 -0.1023,-0.66493 0.102287,-4.34751 0.102287,-4.34751 l 1.22753,0.0512 c 0,0 -0.818352,3.01767 -0.767205,3.93832 0.05115,0.92065 0.869501,1.48326 1.278675,1.27868 0.409178,-0.20459 0.767205,-0.15344 1.380973,-0.81835 0.613766,-0.66491 0.460318,-1.22753 0.460318,-1.22753 l -0.920644,-3.17112 h 1.278673 c 0,0 -0.511469,1.17639 0.306885,2.19933 0.818354,1.02294 1.892438,0.97179 2.148176,0.8695 0.255737,-0.10229 0.818353,-0.30689 0.818353,-0.30689 l -0.869503,1.5344 c 0,0 -2.608492,0.81837 -3.017669,1.27869 -0.409177,0.46031 -1.278679,2.71079 -3.836031,2.65965 -2.55735,-0.0513 -4.296349,-1.22753 -4.756671,-1.27868 -0.460324,-0.0513 -1.636705,0.10228 -1.841295,0.20458 -0.204588,0.10229 -0.66491,1.02295 -0.66491,1.02295 0,0 -0.613764,2.96652 -1.329823,3.78487 -0.716059,0.81836 -3.78488,3.98947 -4.142908,4.14291 -0.35803,0.15345 -1.841295,0.86951 -1.943587,1.739 -0.102288,0.8695 -0.204587,4.96127 0,5.52388 0.204587,0.56262 0.562618,2.40391 0.562618,2.96653 0,0.56262 0.306882,3.5803 0.460321,3.88717 0.153444,0.30689 -0.255734,0.35803 0.664912,0.86949 0.920646,0.51148 0.767206,0.46032 1.227529,0.61378 0.460323,0.15343 1.636704,0.40918 1.636704,0.40918 l -0.15344,0.46031 -15.80443,0.10229 z"
       id="path3710"
       inkscape:connector-curvature="0" />
    <path
       style="fill:#1f510c;fill-opacity:1;stroke:none;stroke-width:0.20253186"
       d="m 81.999293,207.6331 a 15.395254,14.065431 0 0 0 -14.434749,9.22546 19.282428,17.543428 0 0 0 -15.12818,-6.66812 19.282428,17.543428 0 0 0 -18.64203,13.14479 14.832636,13.195931 0 0 0 -1.1519,-0.051 14.832636,13.195931 0 0 0 -14.832691,13.19582 14.832636,13.195931 0 0 0 3.807362,8.80381 9.4621989,7.4674652 0 0 0 -9.229046,7.46086 9.4621989,7.4674652 0 0 0 1.095729,3.47863 7.8254945,6.853701 0 0 0 -3.704118,-0.81883 7.8254945,6.853701 0 0 0 -7.8255628,6.85366 7.8254945,6.853701 0 0 0 7.8255628,6.85364 7.8254945,6.853701 0 0 0 4.113928,-1.02928 9.6667876,9.6156397 0 0 0 8.877384,5.83703 9.6667876,9.6156397 0 0 0 9.535613,-8.11037 12.019549,10.536277 0 0 0 7.138062,2.07516 12.019549,10.536277 0 0 0 11.550645,-7.65507 14.5769,12.224137 0 0 0 1.645572,0.085 14.5769,12.224137 0 0 0 8.157445,-2.10681 15.523121,14.270003 0 0 0 12.94068,6.40309 15.523121,14.270003 0 0 0 4.77018,-0.70846 12.479872,8.8995825 0 0 0 12.031658,6.53957 12.479872,8.8995825 0 0 0 9.100093,-2.82596 14.781487,13.656254 0 0 0 7.31804,1.80302 14.781487,13.656254 0 0 0 5.93949,-1.16931 12.684461,10.945462 0 0 0 8.84178,3.11274 12.684461,10.945462 0 0 0 12.68475,-10.94543 12.684461,10.945462 0 0 0 -12.34455,-10.93078 10.843168,9.0018757 0 0 0 0.5807,-2.87896 10.843168,9.0018757 0 0 0 -6.3588,-8.18633 12.786756,9.6667876 0 0 0 0.0166,-0.25277 12.786756,9.6667876 0 0 0 -5.91061,-8.13807 10.127111,9.4621989 0 0 0 1.71638,-5.26265 10.127111,9.4621989 0 0 0 -10.12698,-9.46203 10.127111,9.4621989 0 0 0 -5.555393,1.55577 15.395254,14.065431 0 0 0 -14.443057,-9.22786 z"
       id="path4517"
       inkscape:connector-curvature="0" />
  </g>
</svg>
